<?xml version="1.0" standalone="yes"?>
<svg xmlns="http://www.w3.org/2000/svg" width="461" height="461">
<path style="fill:#ffffff; stroke:none;" d="M0 0L0 229L1 229C1 110.709 100.976 1 222 1L201 0L156 0L0 0z"/>
<path style="fill:#0daba1; stroke:none;" d="M222 0.424377C200.138 3.2948 179.25 4.86551 158 11.7454C106.46 28.4313 61.3805 64.7009 33.4498 111C-44.469 240.161 24.9601 417.095 173 454.105C200.516 460.984 229.832 463.094 258 459.715C366.731 446.668 453.411 356.509 460.91 247C468.379 137.935 395.779 34.3284 289 7.62656C268.167 2.4169 243.499 -2.39844 222 0.424377z"/>
<path style="fill:#ffffff; stroke:none;" d="M239 0L239 1C324.409 1 405.621 58.062 440.306 135C450.78 158.236 459.929 185.214 460 211L461 211L461 0L239 0M221 31.4244C171.081 37.9787 125.387 52.7797 89.0895 90.0394C2.97226 178.439 16.6622 326.068 119 395.971C137.708 408.75 159.035 418.357 181 423.873C205.465 430.018 230.942 431.833 256 428.715C348.061 417.261 423.546 338.942 429.91 246C436.487 149.967 372.73 60.6679 279 37.1266C260.901 32.5808 239.649 28.9757 221 31.4244z"/>
<path style="fill:#0daba1; stroke:none;" d="M214 42.4244C178.92 47.0439 146.806 57.5132 118 78.7346C26.4497 146.179 16.8329 284.804 97.0147 364.985C120.129 388.1 149.677 404.428 181 413.29C203.674 419.705 228.666 421.505 252 418.715C281.073 415.237 308.091 405.488 333 390.189C351.057 379.099 367.433 363.756 380.349 347C446.833 260.75 425.841 132.96 335 72.6674C317.611 61.126 298.235 52.6866 278 47.6266C257.661 42.5405 234.943 39.6664 214 42.4244z"/>
<path style="fill:#ffffff; stroke:none;" d="M208 296L208 274L120 274L120 242L208 242L208 220L120 220L120 187L208 187L208 165L152 165C145.18 165 134.201 162.927 128 166.028C119.393 170.331 111.759 181.227 105 188C102.112 190.893 98.3547 193.864 97.3179 198C94.4042 209.622 97 225.011 97 237C97 244.803 94.4942 257.933 98.0278 265C102.7 274.345 118.175 288.825 127 294.397C132.744 298.023 143.428 296 150 296L208 296M342 165L342 262L312.579 229L258 166L257 166C249.154 174.198 236.129 185.44 231.858 196C228.462 204.398 231 218.003 231 227L231 296L253 296L253 199L288.271 239L337 296C345.339 289.862 360.003 274.902 363.411 265C366.404 256.305 364 243.169 364 234L364 165L342 165M0 233L0 461L213 461L213 460C128.757 459.944 48.122 393.335 17.6042 318C10.175 299.661 5.12473 280.6 2.42515 261C1.25862 252.53 3.2319 240.702 0 233M460 250C459.986 271.339 453.464 293.18 446.05 313C416.771 391.278 334.392 459.99 248 460L248 461L461 461L461 313L461 270L460 250z"/>
</svg>
