<svg version="1.1" id="Layer_1" xmlns="http://www.w3.org/2000/svg" xmlns:xlink="http://www.w3.org/1999/xlink" x="0px" y="0px"
	 width="100%" viewBox="0 0 2268 765" enable-background="new 0 0 2268 765" xml:space="preserve">
<path fill="#FFFFFF" opacity="1.000000" stroke="none" 
	d="
M2269.000000,275.000000 
	C2269.000000,438.638702 2269.000000,602.277405 2269.000000,766.000000 
	C1648.633911,766.000000 1028.267822,766.000000 407.648438,765.614746 
	C425.595093,764.439026 443.488556,761.612854 461.376648,758.162659 
	C493.064667,752.050598 523.305237,741.633301 551.956604,727.189575 
	C570.213379,717.985962 587.869507,707.225220 604.597412,695.460022 
	C620.643311,684.174500 635.801147,671.392517 650.120056,657.958130 
	C661.972595,646.837646 672.254578,633.996033 682.834656,621.578125 
	C697.054382,604.888489 708.796936,586.430359 719.237793,567.217896 
	C732.867981,542.136658 743.580872,515.850586 751.451294,488.322815 
	C759.950134,458.597229 764.749573,428.284882 765.701538,397.552124 
	C766.302734,378.143738 764.740417,358.571503 762.785400,339.210419 
	C761.135803,322.873199 758.383606,306.529510 754.584229,290.553741 
	C748.331055,264.260162 739.207153,238.769012 726.741516,214.784851 
	C717.749084,197.483368 707.560303,180.703415 696.678101,164.515656 
	C687.760803,151.250702 677.594116,138.702316 666.942322,126.763252 
	C657.349243,116.010948 646.761841,106.035400 635.849121,96.600815 
	C624.237854,86.562294 611.990051,77.201729 599.553833,68.188629 
	C578.230530,52.734615 554.990845,40.573627 530.748413,30.400412 
	C508.536499,21.079325 485.568268,13.906527 461.965332,9.183746 
	C441.881165,5.165040 421.627808,1.831221 401.005829,1.956017 
	C400.005859,1.962068 399.002045,1.333202 398.000000,0.999999 
	C1021.549622,1.000000 1645.099243,1.000000 2269.000000,1.000000 
	C2269.000000,91.365768 2269.000000,181.731979 2268.675049,272.460571 
	C2249.617432,254.099258 2230.920654,235.339081 2212.080322,216.724106 
	C2210.631348,215.292313 2208.172607,214.116364 2206.180420,214.111679 
	C2147.704590,213.973907 2089.228516,213.978424 2030.752686,214.097977 
	C2028.879395,214.101791 2026.541626,215.080811 2025.207642,216.400833 
	C2006.735352,234.679825 1988.396484,253.093643 1970.047852,271.497192 
	C1969.222900,272.324677 1968.614380,273.367920 1967.314453,275.095215 
	C2008.132080,275.095215 2047.861084,275.095215 2088.057617,275.095215 
	C2088.057617,367.875580 2088.057617,460.240387 2088.057617,552.695679 
	C2108.582031,552.695679 2128.633545,552.695679 2149.154297,552.695679 
	C2149.154297,460.027557 2149.154297,367.662750 2149.154297,275.000000 
	C2189.416748,275.000000 2229.208252,275.000000 2269.000000,275.000000 
M902.983032,237.524887 
	C888.883118,253.621460 874.875977,269.800751 860.633606,285.770264 
	C855.568970,291.449036 852.724548,297.111572 852.764526,305.342865 
	C853.155273,385.837372 853.000000,466.334534 853.000000,546.830933 
	C853.000000,548.771484 853.000000,550.711975 853.000000,552.668213 
	C873.627258,552.668213 893.684265,552.668213 914.075806,552.668213 
	C914.075806,470.100494 914.075806,387.863892 914.075806,304.515076 
	C952.395386,348.307831 990.018738,391.304901 1027.998657,434.709442 
	C1065.732544,391.589813 1103.030151,348.968994 1141.184326,305.369141 
	C1141.184326,388.695190 1141.184326,470.728699 1141.184326,552.609863 
	C1162.078613,552.609863 1182.470093,552.609863 1203.000000,552.609863 
	C1203.000000,550.224121 1203.000000,548.228333 1203.000000,546.232483 
	C1203.000000,465.402740 1202.976807,384.572998 1203.050781,303.743347 
	C1203.055908,298.172760 1202.409668,293.761200 1198.038696,289.110565 
	C1184.874512,275.103821 1172.746826,260.127106 1160.091919,245.636078 
	C1150.814453,235.012527 1141.343262,224.558228 1131.779541,213.827911 
	C1097.138672,253.348801 1062.603882,292.748749 1027.967285,332.264954 
	C993.169312,292.556885 958.637390,253.152451 924.071289,213.708923 
	C916.968567,221.748047 910.225403,229.380280 902.983032,237.524887 
M1913.000000,528.500000 
	C1913.000000,498.178345 1913.061768,467.856323 1912.876343,437.535797 
	C1912.862305,435.237793 1911.662842,432.387665 1910.047607,430.745026 
	C1892.992065,413.401154 1875.751953,396.238403 1858.514160,379.074585 
	C1857.403442,377.968750 1855.890991,377.266510 1854.565552,376.376495 
	C1854.930664,375.858490 1855.295776,375.340485 1855.660889,374.822479 
	C1874.696777,374.822479 1893.732788,374.822479 1912.998291,374.822479 
	C1912.998291,348.342957 1913.051270,322.367523 1912.871460,296.393707 
	C1912.860107,294.774872 1911.293213,292.899841 1909.995483,291.596619 
	C1885.191162,266.683746 1860.361572,241.795441 1835.367188,217.073792 
	C1833.635620,215.361145 1830.575806,214.130936 1828.130493,214.125504 
	C1758.151001,213.969879 1688.171143,214.000000 1618.191284,214.000000 
	C1616.582642,214.000000 1614.974121,214.000000 1613.290039,214.000000 
	C1613.290039,327.253082 1613.290039,439.953949 1613.290039,552.667358 
	C1633.302368,552.667358 1653.022827,552.667358 1673.237061,552.667358 
	C1673.237061,506.286499 1673.237061,460.236359 1673.237061,414.397705 
	C1733.447021,414.397705 1793.159058,414.397705 1853.189453,414.397705 
	C1853.189453,460.725616 1853.189453,506.656433 1853.189453,552.702148 
	C1873.231689,552.702148 1892.951660,552.702148 1913.000000,552.702148 
	C1913.000000,544.772461 1913.000000,537.136230 1913.000000,528.500000 
M1339.500000,414.000000 
	C1392.246948,414.000000 1444.993896,414.000000 1498.237671,414.000000 
	C1498.237671,460.713562 1498.237671,506.765289 1498.237671,552.764526 
	C1518.341309,552.764526 1537.944336,552.764526 1557.859375,552.764526 
	C1557.912476,551.587830 1557.993652,550.629150 1557.993774,549.670410 
	C1557.999878,465.690643 1558.018311,381.710876 1557.886353,297.731354 
	C1557.883301,295.749084 1556.652344,293.308228 1555.212280,291.857300 
	C1530.328247,266.786896 1505.358398,241.800964 1480.255371,216.950104 
	C1478.620361,215.331497 1475.759399,214.131119 1473.463135,214.122086 
	C1431.140625,213.955338 1388.817261,213.954910 1346.494751,214.123383 
	C1344.203125,214.132507 1341.352417,215.358368 1339.715332,216.980270 
	C1313.083862,243.366486 1286.567017,269.869232 1260.184570,296.504425 
	C1258.459595,298.245911 1257.134521,301.270081 1257.129761,303.700500 
	C1256.973145,385.180573 1257.000000,466.660980 1257.000000,548.141357 
	C1257.000000,549.717346 1257.000000,551.293335 1257.000000,552.739624 
	C1277.724854,552.739624 1297.661377,552.739624 1318.094727,552.739624 
	C1318.094727,506.430450 1318.094727,460.378723 1318.094727,414.000000 
	C1325.226929,414.000000 1331.863525,414.000000 1339.500000,414.000000 
z"/>
<path fill="#0CAAA0" opacity="1.000000" stroke="none" 
	d="
M397.531342,0.999999 
	C399.002045,1.333202 400.005859,1.962068 401.005829,1.956017 
	C421.627808,1.831221 441.881165,5.165040 461.965332,9.183746 
	C485.568268,13.906527 508.536499,21.079325 530.748413,30.400412 
	C554.990845,40.573627 578.230530,52.734615 599.553833,68.188629 
	C611.990051,77.201729 624.237854,86.562294 635.849121,96.600815 
	C646.761841,106.035400 657.349243,116.010948 666.942322,126.763252 
	C677.594116,138.702316 687.760803,151.250702 696.678101,164.515656 
	C707.560303,180.703415 717.749084,197.483368 726.741516,214.784851 
	C739.207153,238.769012 748.331055,264.260162 754.584229,290.553741 
	C758.383606,306.529510 761.135803,322.873199 762.785400,339.210419 
	C764.740417,358.571503 766.302734,378.143738 765.701538,397.552124 
	C764.749573,428.284882 759.950134,458.597229 751.451294,488.322815 
	C743.580872,515.850586 732.867981,542.136658 719.237793,567.217896 
	C708.796936,586.430359 697.054382,604.888489 682.834656,621.578125 
	C672.254578,633.996033 661.972595,646.837646 650.120056,657.958130 
	C635.801147,671.392517 620.643311,684.174500 604.597412,695.460022 
	C587.869507,707.225220 570.213379,717.985962 551.956604,727.189575 
	C523.305237,741.633301 493.064667,752.050598 461.376648,758.162659 
	C443.488556,761.612854 425.595093,764.439026 407.197510,765.614746 
	C391.645782,766.000000 376.291534,766.000000 360.271118,765.614746 
	C349.163574,764.156799 338.595123,763.769165 328.308746,761.860962 
	C309.956909,758.456604 291.543793,754.972229 273.574341,750.008179 
	C242.876709,741.527954 214.021545,728.491577 186.706116,712.003296 
	C162.366638,697.311279 139.883194,680.233582 119.295097,660.685364 
	C112.212654,653.960693 105.369843,646.903687 99.085556,639.436340 
	C88.765648,627.173706 78.428017,614.855042 69.110825,601.835083 
	C52.865486,579.133545 39.689125,554.657227 29.247007,528.704346 
	C15.369145,494.212158 5.942810,458.674835 2.926797,421.528900 
	C2.827711,420.308502 1.666241,419.174347 0.999999,418.000000 
	C1.000000,417.250000 1.000000,416.500000 1.369977,415.201050 
	C1.493303,412.101379 1.246651,409.550690 1.000000,407.000000 
	C1.000000,391.312439 1.000000,375.624878 1.357539,359.313232 
	C1.476718,356.792786 1.238358,354.896393 0.999999,353.000000 
	C1.000000,352.250000 1.000000,351.500000 1.364104,350.217346 
	C2.150604,348.459473 2.762394,347.264893 2.966752,346.004303 
	C5.679608,329.269897 7.689187,312.391083 11.154762,295.816071 
	C16.522800,270.142029 25.429979,245.556885 36.624252,221.825180 
	C50.683994,192.018753 68.019302,164.334869 89.286827,139.070084 
	C102.270035,123.646675 116.216423,109.300789 131.348846,95.970428 
	C147.474625,81.764999 164.577835,68.962135 182.847031,57.736427 
	C205.090057,44.068954 228.421722,32.596344 253.097870,23.917107 
	C272.750275,17.004850 292.708069,11.421747 313.263367,7.777729 
	C330.246704,4.766939 347.223877,2.239872 364.494263,1.959037 
	C366.000977,1.934536 367.498322,1.333333 369.000000,1.000002 
	C378.354218,1.000000 387.708466,1.000000 397.531342,0.999999 
M143.022156,611.531799 
	C147.310974,615.815430 151.612320,620.086609 155.886337,624.384949 
	C171.222504,639.808472 188.560867,652.687195 206.858902,664.315979 
	C223.375793,674.812805 240.717438,683.709534 258.870941,691.075256 
	C277.291168,698.549133 296.113983,704.700195 315.674744,708.224609 
	C330.444183,710.885742 345.297546,713.344238 360.220093,714.802856 
	C370.647095,715.822083 381.271606,715.382385 391.776154,714.901550 
	C404.416809,714.322876 417.166901,713.870850 429.610413,711.803711 
	C446.411041,709.012939 463.138031,705.378357 479.583405,700.944153 
	C503.575775,694.474976 526.002380,683.962952 547.600586,671.752258 
	C568.438110,659.971741 587.996887,646.210815 605.348999,629.801453 
	C618.656067,617.217346 631.009338,603.505981 642.810791,589.475098 
	C662.559204,565.995972 677.502563,539.535400 689.452881,511.249969 
	C704.198486,476.348541 712.674866,439.976013 714.716858,402.320618 
	C715.689575,384.383545 714.079590,366.257782 712.897034,348.266296 
	C711.729797,330.508057 707.815491,313.200714 703.178223,295.984070 
	C694.424438,263.484283 680.757629,233.278519 662.553833,205.081985 
	C646.531738,180.265015 628.163025,157.369247 605.576538,138.148392 
	C594.720154,128.909744 584.016174,119.348228 572.322021,111.265709 
	C540.906433,89.552536 506.736847,73.420937 469.793121,63.368210 
	C446.857941,57.127346 423.477875,53.274620 399.798553,52.175854 
	C379.829498,51.249252 359.835449,51.975540 339.924377,54.871067 
	C321.517975,57.547779 303.413513,61.281002 285.641632,66.719154 
	C260.791748,74.323166 237.165131,84.759903 214.895248,98.091949 
	C194.079620,110.553391 174.351120,124.670425 157.026459,141.699966 
	C145.376953,153.151031 134.473862,165.413681 123.828682,177.821045 
	C110.406219,193.465439 99.666420,211.000229 89.984795,229.162964 
	C76.530342,254.403503 66.252083,280.937592 60.270359,308.871490 
	C56.518444,326.392487 53.309784,344.251434 52.351059,362.092773 
	C51.155907,384.333954 51.277691,406.707550 54.817608,428.961914 
	C57.559383,446.198578 60.942753,463.199982 65.911591,479.922821 
	C72.949265,503.608429 83.035416,525.960022 95.125427,547.434509 
	C108.195915,570.650574 123.849213,591.970886 143.022156,611.531799 
z"/>
<path fill="#0CAAA0" opacity="1.000000" stroke="none" 
	d="
M2269.000000,274.666687 
	C2229.208252,275.000000 2189.416748,275.000000 2149.154297,275.000000 
	C2149.154297,367.662750 2149.154297,460.027557 2149.154297,552.695679 
	C2128.633545,552.695679 2108.582031,552.695679 2088.057617,552.695679 
	C2088.057617,460.240387 2088.057617,367.875580 2088.057617,275.095215 
	C2047.861084,275.095215 2008.132080,275.095215 1967.314453,275.095215 
	C1968.614380,273.367920 1969.222900,272.324677 1970.047852,271.497192 
	C1988.396484,253.093643 2006.735352,234.679825 2025.207642,216.400833 
	C2026.541626,215.080811 2028.879395,214.101791 2030.752686,214.097977 
	C2089.228516,213.978424 2147.704590,213.973907 2206.180420,214.111679 
	C2208.172607,214.116364 2210.631348,215.292313 2212.080322,216.724106 
	C2230.920654,235.339081 2249.617432,254.099258 2268.675049,272.911438 
	C2269.000000,273.444458 2269.000000,273.888885 2269.000000,274.666687 
z"/>
<path fill="#FFFFFF" opacity="1.000000" stroke="none" 
	d="
M368.531342,1.000002 
	C367.498322,1.333333 366.000977,1.934536 364.494263,1.959037 
	C347.223877,2.239872 330.246704,4.766939 313.263367,7.777729 
	C292.708069,11.421747 272.750275,17.004850 253.097870,23.917107 
	C228.421722,32.596344 205.090057,44.068954 182.847031,57.736427 
	C164.577835,68.962135 147.474625,81.764999 131.348846,95.970428 
	C116.216423,109.300789 102.270035,123.646675 89.286827,139.070084 
	C68.019302,164.334869 50.683994,192.018753 36.624252,221.825180 
	C25.429979,245.556885 16.522800,270.142029 11.154762,295.816071 
	C7.689187,312.391083 5.679608,329.269897 2.966752,346.004303 
	C2.762394,347.264893 2.150604,348.459473 1.364104,349.842346 
	C1.000000,233.737671 1.000000,117.475327 1.000000,1.000000 
	C123.354149,1.000000 245.708420,1.000000 368.531342,1.000002 
z"/>
<path fill="#FFFFFF" opacity="1.000000" stroke="none" 
	d="
M0.999999,418.468658 
	C1.666241,419.174347 2.827711,420.308502 2.926797,421.528900 
	C5.942810,458.674835 15.369145,494.212158 29.247007,528.704346 
	C39.689125,554.657227 52.865486,579.133545 69.110825,601.835083 
	C78.428017,614.855042 88.765648,627.173706 99.085556,639.436340 
	C105.369843,646.903687 112.212654,653.960693 119.295097,660.685364 
	C139.883194,680.233582 162.366638,697.311279 186.706116,712.003296 
	C214.021545,728.491577 242.876709,741.527954 273.574341,750.008179 
	C291.543793,754.972229 309.956909,758.456604 328.308746,761.860962 
	C338.595123,763.769165 349.163574,764.156799 359.802460,765.614746 
	C240.407394,766.000000 120.814781,766.000000 1.000000,766.000000 
	C1.000000,650.312561 1.000000,534.624939 0.999999,418.468658 
z"/>
<path fill="#FFFFFF" opacity="1.000000" stroke="none" 
	d="
M1.000000,407.444153 
	C1.246651,409.550690 1.493303,412.101379 1.369977,414.826050 
	C1.000000,412.629425 1.000000,410.258881 1.000000,407.444153 
z"/>
<path fill="#FFFFFF" opacity="1.000000" stroke="none" 
	d="
M0.999999,353.428467 
	C1.238358,354.896393 1.476718,356.792786 1.357539,358.844604 
	C1.000000,357.285645 1.000000,355.571289 0.999999,353.428467 
z"/>
<path fill="#0CAAA0" opacity="1.000000" stroke="none" 
	d="
M903.232666,237.268707 
	C910.225403,229.380280 916.968567,221.748047 924.071289,213.708923 
	C958.637390,253.152451 993.169312,292.556885 1027.967285,332.264954 
	C1062.603882,292.748749 1097.138672,253.348801 1131.779541,213.827911 
	C1141.343262,224.558228 1150.814453,235.012527 1160.091919,245.636078 
	C1172.746826,260.127106 1184.874512,275.103821 1198.038696,289.110565 
	C1202.409668,293.761200 1203.055908,298.172760 1203.050781,303.743347 
	C1202.976807,384.572998 1203.000000,465.402740 1203.000000,546.232483 
	C1203.000000,548.228333 1203.000000,550.224121 1203.000000,552.609863 
	C1182.470093,552.609863 1162.078613,552.609863 1141.184326,552.609863 
	C1141.184326,470.728699 1141.184326,388.695190 1141.184326,305.369141 
	C1103.030151,348.968994 1065.732544,391.589813 1027.998657,434.709442 
	C990.018738,391.304901 952.395386,348.307831 914.075806,304.515076 
	C914.075806,387.863892 914.075806,470.100494 914.075806,552.668213 
	C893.684265,552.668213 873.627258,552.668213 853.000000,552.668213 
	C853.000000,550.711975 853.000000,548.771484 853.000000,546.830933 
	C853.000000,466.334534 853.155273,385.837372 852.764526,305.342865 
	C852.724548,297.111572 855.568970,291.449036 860.633606,285.770264 
	C874.875977,269.800751 888.883118,253.621460 903.232666,237.268707 
z"/>
<path fill="#0CAAA0" opacity="1.000000" stroke="none" 
	d="
M1913.000000,529.000000 
	C1913.000000,537.136230 1913.000000,544.772461 1913.000000,552.702148 
	C1892.951660,552.702148 1873.231689,552.702148 1853.189453,552.702148 
	C1853.189453,506.656433 1853.189453,460.725616 1853.189453,414.397705 
	C1793.159058,414.397705 1733.447021,414.397705 1673.237061,414.397705 
	C1673.237061,460.236359 1673.237061,506.286499 1673.237061,552.667358 
	C1653.022827,552.667358 1633.302368,552.667358 1613.290039,552.667358 
	C1613.290039,439.953949 1613.290039,327.253082 1613.290039,214.000000 
	C1614.974121,214.000000 1616.582642,214.000000 1618.191284,214.000000 
	C1688.171143,214.000000 1758.151001,213.969879 1828.130493,214.125504 
	C1830.575806,214.130936 1833.635620,215.361145 1835.367188,217.073792 
	C1860.361572,241.795441 1885.191162,266.683746 1909.995483,291.596619 
	C1911.293213,292.899841 1912.860107,294.774872 1912.871460,296.393707 
	C1913.051270,322.367523 1912.998291,348.342957 1912.998291,374.822479 
	C1893.732788,374.822479 1874.696777,374.822479 1855.660889,374.822479 
	C1855.295776,375.340485 1854.930664,375.858490 1854.565552,376.376495 
	C1855.890991,377.266510 1857.403442,377.968750 1858.514160,379.074585 
	C1875.751953,396.238403 1892.992065,413.401154 1910.047607,430.745026 
	C1911.662842,432.387665 1912.862305,435.237793 1912.876343,437.535797 
	C1913.061768,467.856323 1913.000000,498.178345 1913.000000,529.000000 
M1757.500000,353.000000 
	C1789.253662,353.000000 1821.007202,353.000000 1852.613159,353.000000 
	C1852.613159,326.593567 1852.613159,300.870453 1852.613159,275.252441 
	C1792.624023,275.252441 1733.021973,275.252441 1673.298340,275.252441 
	C1673.298340,301.227997 1673.298340,326.950165 1673.298340,353.000000 
	C1701.230347,353.000000 1728.865234,353.000000 1757.500000,353.000000 
z"/>
<path fill="#0CAAA0" opacity="1.000000" stroke="none" 
	d="
M1339.000000,414.000000 
	C1331.863525,414.000000 1325.226929,414.000000 1318.094727,414.000000 
	C1318.094727,460.378723 1318.094727,506.430450 1318.094727,552.739624 
	C1297.661377,552.739624 1277.724854,552.739624 1257.000000,552.739624 
	C1257.000000,551.293335 1257.000000,549.717346 1257.000000,548.141357 
	C1257.000000,466.660980 1256.973145,385.180573 1257.129761,303.700500 
	C1257.134521,301.270081 1258.459595,298.245911 1260.184570,296.504425 
	C1286.567017,269.869232 1313.083862,243.366486 1339.715332,216.980270 
	C1341.352417,215.358368 1344.203125,214.132507 1346.494751,214.123383 
	C1388.817261,213.954910 1431.140625,213.955338 1473.463135,214.122086 
	C1475.759399,214.131119 1478.620361,215.331497 1480.255371,216.950104 
	C1505.358398,241.800964 1530.328247,266.786896 1555.212280,291.857300 
	C1556.652344,293.308228 1557.883301,295.749084 1557.886353,297.731354 
	C1558.018311,381.710876 1557.999878,465.690643 1557.993774,549.670410 
	C1557.993652,550.629150 1557.912476,551.587830 1557.859375,552.764526 
	C1537.944336,552.764526 1518.341309,552.764526 1498.237671,552.764526 
	C1498.237671,506.765289 1498.237671,460.713562 1498.237671,414.000000 
	C1444.993896,414.000000 1392.246948,414.000000 1339.000000,414.000000 
M1356.500000,275.000000 
	C1343.742676,275.000000 1330.985352,275.000000 1318.388794,275.000000 
	C1318.388794,301.410400 1318.388794,327.133575 1318.388794,352.745605 
	C1378.379883,352.745605 1437.981934,352.745605 1497.699707,352.745605 
	C1497.699707,326.768005 1497.699707,301.045837 1497.699707,275.000000 
	C1450.766724,275.000000 1404.133301,275.000000 1356.500000,275.000000 
z"/>
<path fill="#FFFFFF" opacity="1.000000" stroke="none" 
	d="
M142.775223,611.276184 
	C123.849213,591.970886 108.195915,570.650574 95.125427,547.434509 
	C83.035416,525.960022 72.949265,503.608429 65.911591,479.922821 
	C60.942753,463.199982 57.559383,446.198578 54.817608,428.961914 
	C51.277691,406.707550 51.155907,384.333954 52.351059,362.092773 
	C53.309784,344.251434 56.518444,326.392487 60.270359,308.871490 
	C66.252083,280.937592 76.530342,254.403503 89.984795,229.162964 
	C99.666420,211.000229 110.406219,193.465439 123.828682,177.821045 
	C134.473862,165.413681 145.376953,153.151031 157.026459,141.699966 
	C174.351120,124.670425 194.079620,110.553391 214.895248,98.091949 
	C237.165131,84.759903 260.791748,74.323166 285.641632,66.719154 
	C303.413513,61.281002 321.517975,57.547779 339.924377,54.871067 
	C359.835449,51.975540 379.829498,51.249252 399.798553,52.175854 
	C423.477875,53.274620 446.857941,57.127346 469.793121,63.368210 
	C506.736847,73.420937 540.906433,89.552536 572.322021,111.265709 
	C584.016174,119.348228 594.720154,128.909744 605.576538,138.148392 
	C628.163025,157.369247 646.531738,180.265015 662.553833,205.081985 
	C680.757629,233.278519 694.424438,263.484283 703.178223,295.984070 
	C707.815491,313.200714 711.729797,330.508057 712.897034,348.266296 
	C714.079590,366.257782 715.689575,384.383545 714.716858,402.320618 
	C712.674866,439.976013 704.198486,476.348541 689.452881,511.249969 
	C677.502563,539.535400 662.559204,565.995972 642.810791,589.475098 
	C631.009338,603.505981 618.656067,617.217346 605.348999,629.801453 
	C587.996887,646.210815 568.438110,659.971741 547.600586,671.752258 
	C526.002380,683.962952 503.575775,694.474976 479.583405,700.944153 
	C463.138031,705.378357 446.411041,709.012939 429.610413,711.803711 
	C417.166901,713.870850 404.416809,714.322876 391.776154,714.901550 
	C381.271606,715.382385 370.647095,715.822083 360.220093,714.802856 
	C345.297546,713.344238 330.444183,710.885742 315.674744,708.224609 
	C296.113983,704.700195 277.291168,698.549133 258.870941,691.075256 
	C240.717438,683.709534 223.375793,674.812805 206.858902,664.315979 
	C188.560867,652.687195 171.222504,639.808472 155.886337,624.384949 
	C151.612320,620.086609 147.310974,615.815430 142.775223,611.276184 
M653.934631,224.636383 
	C651.603455,220.905151 649.367065,217.110687 646.925720,213.453033 
	C631.918823,190.969620 615.390137,169.738007 594.621521,152.216644 
	C583.239624,142.614334 571.751343,133.061600 559.642273,124.424004 
	C551.209351,118.408722 541.700317,113.876175 532.560730,108.884979 
	C524.101379,104.265266 515.764893,99.258263 506.887024,95.606133 
	C494.332764,90.441643 481.457703,85.958817 468.492523,81.912880 
	C444.485443,74.421211 419.677185,70.763039 394.648224,70.261040 
	C377.050964,69.908089 359.289734,71.077225 341.814362,73.265160 
	C325.900543,75.257584 310.064758,78.772079 294.567047,82.985703 
	C269.343170,89.843765 245.606461,100.505013 223.140457,113.954163 
	C204.279739,125.245018 186.456528,138.031418 170.607819,153.192093 
	C159.052429,164.245819 148.505569,176.411911 138.071182,188.564697 
	C125.173416,203.586533 114.782318,220.374725 105.586449,237.888458 
	C95.498367,257.101440 87.420914,277.129089 81.485115,298.008087 
	C75.211441,320.075531 71.196899,342.617950 70.202599,365.473602 
	C69.297989,386.267731 69.003113,407.214325 73.046516,427.824585 
	C76.048073,443.124268 78.991776,458.476227 83.005310,473.526459 
	C88.424004,493.845825 96.908913,513.000916 106.789192,531.609741 
	C118.421249,553.517944 132.341995,573.843323 148.946121,592.110352 
	C159.946793,604.212708 172.375717,615.068420 184.604218,625.990723 
	C201.863342,641.406555 221.380356,653.749390 242.098709,663.774109 
	C257.982635,671.459534 274.627716,677.757874 291.333893,683.512939 
	C314.577301,691.520081 338.845306,695.355103 363.299194,696.771729 
	C378.659393,697.661621 394.200165,697.005310 409.563934,695.809509 
	C424.194031,694.670654 438.921417,692.914490 453.213898,689.691162 
	C483.516205,682.857056 512.168701,671.419617 539.230530,656.010376 
	C559.504639,644.466003 578.466980,631.013855 595.207214,614.914551 
	C608.616211,602.018921 621.037354,587.950867 632.769470,573.488525 
	C653.901428,547.438965 669.308411,517.971863 679.817688,486.200470 
	C685.001770,470.528015 688.967468,454.307770 691.796326,438.041779 
	C694.626648,421.767487 696.097656,405.157135 696.761780,388.637695 
	C697.283630,375.656860 696.309204,362.517120 694.833130,349.581085 
	C693.190796,335.187805 691.228027,320.688019 687.629578,306.691010 
	C680.276855,278.091217 669.633728,250.670425 653.934631,224.636383 
z"/>
<path fill="#FFFFFF" opacity="1.000000" stroke="none" 
	d="
M1757.000000,353.000000 
	C1728.865234,353.000000 1701.230347,353.000000 1673.298340,353.000000 
	C1673.298340,326.950165 1673.298340,301.227997 1673.298340,275.252441 
	C1733.021973,275.252441 1792.624023,275.252441 1852.613159,275.252441 
	C1852.613159,300.870453 1852.613159,326.593567 1852.613159,353.000000 
	C1821.007202,353.000000 1789.253662,353.000000 1757.000000,353.000000 
z"/>
<path fill="#FFFFFF" opacity="1.000000" stroke="none" 
	d="
M1357.000000,275.000000 
	C1404.133301,275.000000 1450.766724,275.000000 1497.699707,275.000000 
	C1497.699707,301.045837 1497.699707,326.768005 1497.699707,352.745605 
	C1437.981934,352.745605 1378.379883,352.745605 1318.388794,352.745605 
	C1318.388794,327.133575 1318.388794,301.410400 1318.388794,275.000000 
	C1330.985352,275.000000 1343.742676,275.000000 1357.000000,275.000000 
z"/>
<path fill="#0CAAA0" opacity="1.000000" stroke="none" 
	d="
M654.001343,225.004669 
	C669.633728,250.670425 680.276855,278.091217 687.629578,306.691010 
	C691.228027,320.688019 693.190796,335.187805 694.833130,349.581085 
	C696.309204,362.517120 697.283630,375.656860 696.761780,388.637695 
	C696.097656,405.157135 694.626648,421.767487 691.796326,438.041779 
	C688.967468,454.307770 685.001770,470.528015 679.817688,486.200470 
	C669.308411,517.971863 653.901428,547.438965 632.769470,573.488525 
	C621.037354,587.950867 608.616211,602.018921 595.207214,614.914551 
	C578.466980,631.013855 559.504639,644.466003 539.230530,656.010376 
	C512.168701,671.419617 483.516205,682.857056 453.213898,689.691162 
	C438.921417,692.914490 424.194031,694.670654 409.563934,695.809509 
	C394.200165,697.005310 378.659393,697.661621 363.299194,696.771729 
	C338.845306,695.355103 314.577301,691.520081 291.333893,683.512939 
	C274.627716,677.757874 257.982635,671.459534 242.098709,663.774109 
	C221.380356,653.749390 201.863342,641.406555 184.604218,625.990723 
	C172.375717,615.068420 159.946793,604.212708 148.946121,592.110352 
	C132.341995,573.843323 118.421249,553.517944 106.789192,531.609741 
	C96.908913,513.000916 88.424004,493.845825 83.005310,473.526459 
	C78.991776,458.476227 76.048073,443.124268 73.046516,427.824585 
	C69.003113,407.214325 69.297989,386.267731 70.202599,365.473602 
	C71.196899,342.617950 75.211441,320.075531 81.485115,298.008087 
	C87.420914,277.129089 95.498367,257.101440 105.586449,237.888458 
	C114.782318,220.374725 125.173416,203.586533 138.071182,188.564697 
	C148.505569,176.411911 159.052429,164.245819 170.607819,153.192093 
	C186.456528,138.031418 204.279739,125.245018 223.140457,113.954163 
	C245.606461,100.505013 269.343170,89.843765 294.567047,82.985703 
	C310.064758,78.772079 325.900543,75.257584 341.814362,73.265160 
	C359.289734,71.077225 377.050964,69.908089 394.648224,70.261040 
	C419.677185,70.763039 444.485443,74.421211 468.492523,81.912880 
	C481.457703,85.958817 494.332764,90.441643 506.887024,95.606133 
	C515.764893,99.258263 524.101379,104.265266 532.560730,108.884979 
	C541.700317,113.876175 551.209351,118.408722 559.642273,124.424004 
	C571.751343,133.061600 583.239624,142.614334 594.621521,152.216644 
	C615.390137,169.738007 631.918823,190.969620 646.925720,213.453033 
	C649.367065,217.110687 651.603455,220.905151 654.001343,225.004669 
M383.000000,376.500000 
	C383.000000,415.250458 383.000000,454.000916 383.000000,492.617218 
	C396.067810,492.617218 408.459137,492.617218 421.180878,492.617218 
	C421.180878,439.028687 421.180878,385.822296 421.180878,332.615875 
	C421.565796,332.378845 421.950714,332.141785 422.335632,331.904755 
	C468.482941,385.388031 514.630249,438.871307 560.952515,492.557373 
	C568.560120,483.848389 575.733093,475.710175 582.821228,467.498749 
	C588.075012,461.412384 593.079956,455.106201 598.455933,449.132141 
	C602.618164,444.506805 605.248535,439.970459 605.199280,433.110016 
	C604.832397,381.955261 605.000000,330.796661 605.000000,279.639282 
	C605.000000,277.868652 605.000000,276.098022 605.000000,274.340698 
	C592.351440,274.340698 580.294495,274.340698 567.776001,274.340698 
	C567.776001,328.373291 567.776001,382.066559 567.776001,437.181244 
	C520.458130,382.438171 474.043793,328.740448 427.488251,274.879333 
	C421.061310,282.386932 415.015778,289.539581 408.869843,296.604889 
	C401.520660,305.053406 394.062256,313.406891 386.699890,321.844025 
	C383.928833,325.019592 382.757690,328.546356 382.869232,333.010956 
	C383.222900,347.166229 383.000000,361.335907 383.000000,376.500000 
M257.500000,493.000000 
	C286.586487,493.000000 315.672943,493.000000 344.613068,493.000000 
	C344.613068,480.257904 344.613068,468.199280 344.613068,455.823486 
	C295.957367,455.823486 247.687927,455.823486 199.298737,455.823486 
	C199.298737,438.104553 199.298737,420.715363 199.298737,402.823059 
	C247.983841,402.823059 296.372467,402.823059 344.612000,402.823059 
	C344.612000,389.922607 344.612000,377.530579 344.612000,364.821350 
	C295.955261,364.821350 247.685837,364.821350 199.299789,364.821350 
	C199.299789,347.102417 199.299789,329.713226 199.299789,311.820984 
	C247.985931,311.820984 296.374542,311.820984 344.610962,311.820984 
	C344.610962,298.920471 344.610962,286.528442 344.610962,274.000214 
	C301.565186,274.000214 258.908112,273.966888 216.251709,274.114655 
	C214.432007,274.120941 212.230362,275.410583 210.860764,276.764221 
	C195.097977,292.343079 179.401093,307.990509 163.882965,323.812256 
	C162.275146,325.451538 161.131027,328.326019 161.119781,330.633942 
	C160.947754,365.962097 160.954086,401.291504 161.111664,436.619781 
	C161.121338,438.787750 162.184875,441.493011 163.693832,443.028839 
	C179.342377,458.955963 195.138351,474.739655 211.046555,490.407715 
	C212.486710,491.826111 214.981949,492.853943 217.006744,492.887634 
	C230.168152,493.106476 243.334961,493.000000 257.500000,493.000000 
z"/>
<path fill="#FFFFFF" opacity="1.000000" stroke="none" 
	d="
M383.000000,376.000000 
	C383.000000,361.335907 383.222900,347.166229 382.869232,333.010956 
	C382.757690,328.546356 383.928833,325.019592 386.699890,321.844025 
	C394.062256,313.406891 401.520660,305.053406 408.869843,296.604889 
	C415.015778,289.539581 421.061310,282.386932 427.488251,274.879333 
	C474.043793,328.740448 520.458130,382.438171 567.776001,437.181244 
	C567.776001,382.066559 567.776001,328.373291 567.776001,274.340698 
	C580.294495,274.340698 592.351440,274.340698 605.000000,274.340698 
	C605.000000,276.098022 605.000000,277.868652 605.000000,279.639282 
	C605.000000,330.796661 604.832397,381.955261 605.199280,433.110016 
	C605.248535,439.970459 602.618164,444.506805 598.455933,449.132141 
	C593.079956,455.106201 588.075012,461.412384 582.821228,467.498749 
	C575.733093,475.710175 568.560120,483.848389 560.952515,492.557373 
	C514.630249,438.871307 468.482941,385.388031 422.335632,331.904755 
	C421.950714,332.141785 421.565796,332.378845 421.180878,332.615875 
	C421.180878,385.822296 421.180878,439.028687 421.180878,492.617218 
	C408.459137,492.617218 396.067810,492.617218 383.000000,492.617218 
	C383.000000,454.000916 383.000000,415.250458 383.000000,376.000000 
z"/>
<path fill="#FFFFFF" opacity="1.000000" stroke="none" 
	d="
M257.000000,493.000000 
	C243.334961,493.000000 230.168152,493.106476 217.006744,492.887634 
	C214.981949,492.853943 212.486710,491.826111 211.046555,490.407715 
	C195.138351,474.739655 179.342377,458.955963 163.693832,443.028839 
	C162.184875,441.493011 161.121338,438.787750 161.111664,436.619781 
	C160.954086,401.291504 160.947754,365.962097 161.119781,330.633942 
	C161.131027,328.326019 162.275146,325.451538 163.882965,323.812256 
	C179.401093,307.990509 195.097977,292.343079 210.860764,276.764221 
	C212.230362,275.410583 214.432007,274.120941 216.251709,274.114655 
	C258.908112,273.966888 301.565186,274.000214 344.610962,274.000214 
	C344.610962,286.528442 344.610962,298.920471 344.610962,311.820984 
	C296.374542,311.820984 247.985931,311.820984 199.299789,311.820984 
	C199.299789,329.713226 199.299789,347.102417 199.299789,364.821350 
	C247.685837,364.821350 295.955261,364.821350 344.612000,364.821350 
	C344.612000,377.530579 344.612000,389.922607 344.612000,402.823059 
	C296.372467,402.823059 247.983841,402.823059 199.298737,402.823059 
	C199.298737,420.715363 199.298737,438.104553 199.298737,455.823486 
	C247.687927,455.823486 295.957367,455.823486 344.613068,455.823486 
	C344.613068,468.199280 344.613068,480.257904 344.613068,493.000000 
	C315.672943,493.000000 286.586487,493.000000 257.000000,493.000000 
z"/>
</svg>