<?xml version="1.0" standalone="yes"?>
<svg xmlns="http://www.w3.org/2000/svg" width="1101" height="461">
<path style="fill:#ffffff; stroke:none;" d="M0 0L0 221L1 221C1 110.581 102.382 1.0123 215 1L195 0L151 0L0 0z"/>
<path style="fill:#0daba1; stroke:none;" d="M215 0.424377C167.18 6.70306 124.389 19.7833 86 50.4491C63.1444 68.7063 44.1516 91.6264 29.7191 117C16.7143 139.864 7.93673 165.068 3.58642 191C-1.30243 220.142 -0.922516 250.035 5.21065 279C30.1236 396.657 144.881 474.629 263 458.718C296.39 454.22 328.801 442.064 357 423.656C462.909 354.521 492.694 207.083 422.645 102C408.163 80.2741 389.928 61.2021 369 45.6296C346.795 29.1069 321.641 16.4432 295 8.85956C270.063 1.76114 240.936 -2.98096 215 0.424377z"/>
<path style="fill:#ffffff; stroke:none;" d="M246 0L246 1C274.854 1.00314 304.189 10.4364 330 22.7029C355.229 34.6927 378.841 51.5283 397.91 72C482.358 162.656 479.748 301.144 395.91 391C377.413 410.825 354.122 426.217 330 438.247C303.666 451.38 272.52 460 243 460L243 461L1101 461L1101 333L1064 333L1064 249L956 249L956 333L920 333L920 128L1014 128C1024.25 128 1042.79 124.421 1052 129.028C1057.37 131.715 1061.8 137.803 1066 142C1077.19 153.188 1088.06 166.886 1101 176L1101 0L246 0M216 31.4244C174.913 36.8217 137.713 48.916 105 75.4599C4.33331 157.141 8.12953 320.945 117 394.33C136.658 407.581 157.969 417.794 181 423.626C204.488 429.573 228.921 431.604 253 428.715C347.293 417.401 423.384 339.301 429.91 244C437.728 129.838 334.759 15.8238 216 31.4244z"/>
<path style="fill:#0daba1; stroke:none;" d="M226 41.4244C207.507 43.8454 190.087 44.8946 172 50.4352C132.281 62.6022 97.3135 89.9111 74.0285 124C24.0428 197.179 33.1385 302.66 97.0394 364.91C139.493 406.268 198.414 425.192 257 417.715C349.453 405.914 422.264 321.224 419.985 228C417.966 145.375 363.093 71.4343 283 48.5787C265.704 43.6431 243.993 39.0689 226 41.4244M513 333L550 333L550 249L685 249L685 212L606 212L571 212.603L550 232L550 165L685 165L685 128L599 128C588.335 128 572.017 124.91 562 128.603C556.884 130.49 552.755 136.245 549 140L525 164C521.245 167.755 515.49 171.884 513.603 177C508.971 189.565 513 210.59 513 224L513 333M718 165L790 165L790 333L827 333L827 165L899 165C894.185 154.675 882.011 146.01 874 138C870.788 134.788 867.385 130.22 863 128.603C857.076 126.419 848.262 128 842 128L795 128C783.78 128 763.067 123.994 753 129.028C748.361 131.347 744.616 136.384 741 140C733.547 147.453 722.484 155.384 718 165M920 128L920 333L956 333L956 249L1064 249L1064 333L1101 333L1101 282C1101 275.674 1102.85 265.764 1099.97 260C1093.53 247.107 1076.19 235.186 1066 225L1101 225C1101 211.305 1105.13 189.827 1100.4 177C1097.37 168.792 1086.09 161.094 1080 155C1072.38 147.38 1062.2 132.366 1052 128.603C1041.22 124.628 1023.49 128 1012 128L920 128z"/>
<path style="fill:#ffffff; stroke:none;" d="M208 296L208 274L119 274L119 242L208 242L208 219L119 219L119 187L208 187L208 165L152 165C145.18 165 134.201 162.927 128 166.028C119.393 170.331 111.759 181.227 105 188C102.112 190.893 98.3547 193.864 97.3179 198C94.4042 209.622 97 225.011 97 237C97 244.803 94.4942 257.933 98.0278 265C102.7 274.345 118.175 288.825 127 294.397C132.744 298.023 143.428 296 150 296L208 296M342 165L342 262C319.659 243.984 301.067 215.885 282.421 194C275.028 185.322 266.391 170.886 256 166L231.6 196L231 227L231 296L253 296L253 198L337 295L338 295C345.917 286.917 358.877 275.546 363.142 265C366.538 256.602 364 242.997 364 234L364 165L342 165M956 165L956 212L1064 212L1064 165L956 165M1066 225C1074.61 237.217 1088.78 251.394 1101 260L1101 225L1066 225M0 240L0 461L218 461L218 460C131.866 460 51.3209 397.088 18.4275 320C11.3228 303.35 6.40492 285.838 3.41358 268C1.98551 259.484 3.25495 247.757 0 240z"/>
</svg>
